#define snake_segment_left_right_width 16
#define snake_segment_left_right_height 16
static unsigned char snake_segment_left_right_bits[] = {
  0xff, 0xff, 0xff, 0xff, 0x1f, 0xf8, 0xaf, 0xea, 0x03, 0xc0, 0xab, 0xaa,
  0x00, 0x00, 0xaa, 0xaa, 0x00, 0x00, 0xaa, 0xaa, 0x00, 0x00, 0xab, 0xaa,
  0x03, 0xc0, 0xaf, 0xea, 0x1f, 0xf8, 0xff, 0xff, };
