#define snake_head_right_width 16
#define snake_head_right_height 16
static unsigned char snake_head_right_bits[] = {
  0xff, 0xff, 0xff, 0xff, 0x1f, 0xff, 0xef, 0xf8, 0xf7, 0xf7, 0x79, 0xef,
  0x3c, 0x5e, 0xfc, 0x9f, 0xfc, 0x5f, 0xfc, 0x9f, 0x3c, 0x5e, 0x79, 0xef,
  0xf7, 0xf7, 0xef, 0xf8, 0x1f, 0xff, 0xff, 0xff, };
