#define snake_segment_vert_width 16
#define snake_segment_vert_height 16
const unsigned char snake_segment_vert_bits[] = {
  0x3f, 0xf8, 0xbf, 0xfa, 0x0f, 0xe0, 0xaf, 0xea, 0x07, 0xc0, 0xab, 0xaa,
  0x03, 0x80, 0xab, 0xaa, 0x03, 0x80, 0xab, 0xaa, 0x03, 0x80, 0xaf, 0xea,
  0x07, 0xc0, 0xaf, 0xea, 0x1f, 0xf0, 0xbf, 0xfa, };
