#define snake_head_down_width 16
#define snake_head_down_height 16
const unsigned char snake_head_down_bits[] = {
  0x3f, 0xf8, 0x1f, 0xf0, 0xdf, 0xf7, 0xef, 0xef, 0xf7, 0xdf, 0xfb, 0xbf,
  0xbb, 0xbb, 0x9b, 0xb3, 0xb7, 0xdb, 0xf7, 0xdf, 0xf7, 0xdf, 0xef, 0xef,
  0xdf, 0xf7, 0x3f, 0xf8, 0x7f, 0xfd, 0xbf, 0xfa, };
