#define snake_head_left_width 16
#define snake_head_left_height 16
static unsigned char snake_head_left_bits[] = {
  0xff, 0xff, 0xff, 0xff, 0xff, 0xf8, 0x1f, 0xf7, 0xef, 0xef, 0xf7, 0x9e,
  0x7a, 0x3c, 0xf9, 0x3f, 0xfa, 0x3f, 0xf9, 0x3f, 0x7a, 0x3c, 0xf7, 0x9e,
  0xef, 0xef, 0x1f, 0xf7, 0xff, 0xf8, 0xff, 0xff, };
